<svg width="14" height="14" viewBox="0 0 14 14" fill="none" xmlns="http://www.w3.org/2000/svg">
<path d="M9.91669 1.16667H4.08335C2.47252 1.16667 1.16669 2.47251 1.16669 4.08334V9.91667C1.16669 11.5275 2.47252 12.8333 4.08335 12.8333H9.91669C11.5275 12.8333 12.8334 11.5275 12.8334 9.91667V4.08334C12.8334 2.47251 11.5275 1.16667 9.91669 1.16667Z" stroke="#06102B" stroke-linecap="round" stroke-linejoin="round"/>
<path d="M9.33333 6.63249C9.40532 7.11797 9.32239 7.61379 9.09635 8.04942C8.87031 8.48505 8.51266 8.83832 8.07427 9.05897C7.63589 9.27962 7.13909 9.35642 6.65453 9.27845C6.16998 9.20048 5.72235 8.97171 5.37531 8.62467C5.02828 8.27763 4.7995 7.83 4.72153 7.34545C4.64356 6.8609 4.72036 6.3641 4.94102 5.92571C5.16167 5.48732 5.51493 5.12967 5.95057 4.90363C6.3862 4.67759 6.88202 4.59467 7.36749 4.66666C7.8627 4.74009 8.32115 4.97085 8.67515 5.32484C9.02914 5.67883 9.25989 6.13729 9.33333 6.63249Z" stroke="#0F172A" stroke-width="2" stroke-linecap="round" stroke-linejoin="round"/>
<path d="M10.2083 3.79167H10.2141" stroke="#0F172A" stroke-width="2" stroke-linecap="round" stroke-linejoin="round"/>
</svg>
