<svg width="10" height="10" viewBox="0 0 10 10" fill="none" xmlns="http://www.w3.org/2000/svg">
<path fill-rule="evenodd" clip-rule="evenodd" d="M0.269118 2.19225C0.100003 1.96378 0 1.68107 0 1.375C0 0.615608 0.615608 0 1.375 0C1.64743 0 1.90135 0.0792267 2.11498 0.215896C1.34423 0.705956 0.706751 1.38693 0.269118 2.19225ZM9.37 4.755C9.37 7.17125 7.41125 9.13 4.995 9.13C2.57875 9.13 0.62 7.17125 0.62 4.755C0.62 2.33875 2.57875 0.38 4.995 0.38C7.41125 0.38 9.37 2.33875 9.37 4.755ZM5.38 5.375H3.25V4.62H4.63V2H5.38V5.375ZM8.625 0C8.35046 0 8.0947 0.0804636 7.88004 0.219095C8.65102 0.710493 9.28829 1.39306 9.72509 2.20001C9.89771 1.9702 10 1.68455 10 1.375C10 0.615608 9.38439 0 8.625 0Z" fill="black"/>
</svg>
