<svg width="40" height="14" viewBox="0 0 40 14" fill="none" xmlns="http://www.w3.org/2000/svg">
<g clip-path="url(#clip0_1_5409)">
<path fill-rule="evenodd" clip-rule="evenodd" d="M16.5 2H17.5C18.0523 2 18.5 2.44772 18.5 3V11C18.5 11.5523 18.0523 12 17.5 12H16.5C15.9477 12 15.5 11.5523 15.5 11V3C15.5 2.44772 15.9477 2 16.5 2Z" fill="black"/>
<path d="M13 4H12C11.4477 4 11 4.44772 11 5V11C11 11.5523 11.4477 12 12 12H13C13.5523 12 14 11.5523 14 11V5C14 4.44772 13.5523 4 13 4Z" fill="black"/>
<path d="M7.5 6H8.5C9.05228 6 9.5 6.44772 9.5 7V11C9.5 11.5523 9.05228 12 8.5 12H7.5C6.94772 12 6.5 11.5523 6.5 11V7C6.5 6.44772 6.94772 6 7.5 6Z" fill="black"/>
<path d="M3 7.5H4C4.55228 7.5 5 7.94772 5 8.5V11C5 11.5523 4.55228 12 4 12H3C2.44772 12 2 11.5523 2 11V8.5C2 7.94772 2.44772 7.5 3 7.5Z" fill="black"/>
<path fill-rule="evenodd" clip-rule="evenodd" d="M38.9828 4.52294C37.0717 2.89057 34.6574 2 32.1327 2C29.6006 2 27.1795 2.89589 25.2661 4.53708L25.1036 4.67646C24.9722 4.78918 24.9647 4.98954 25.0873 5.11176L26.2142 6.23557C26.3236 6.34466 26.4985 6.3521 26.6168 6.2527L26.7564 6.13541C28.2633 4.86943 30.1552 4.18035 32.1327 4.18035C34.1035 4.18035 35.9894 4.86472 37.494 6.12283L37.6336 6.23952C37.7519 6.33847 37.9264 6.33084 38.0356 6.22195L39.1627 5.09797C39.2855 4.97558 39.2777 4.77488 39.1459 4.66228L38.9828 4.52294ZM32.1327 5.46979C33.7236 5.46979 35.251 5.99754 36.4953 6.97486L36.6711 7.11298C36.8113 7.2231 36.8236 7.43059 36.6974 7.55643L35.5667 8.68407C35.4621 8.78837 35.2966 8.80034 35.178 8.7122L35.0401 8.60976C34.1997 7.98518 33.1864 7.65015 32.1327 7.65015C31.0726 7.65015 30.0533 7.98934 29.2101 8.62109L29.0721 8.72448C28.9535 8.81334 28.7874 8.80164 28.6825 8.69703L27.5522 7.56981C27.4262 7.44423 27.4382 7.23727 27.5777 7.12694L27.7526 6.98871C28.9998 6.00267 30.5342 5.46979 32.1327 5.46979ZM32.1327 8.93959C32.7722 8.93959 33.3936 9.10763 33.9411 9.42805L34.163 9.55788C34.3311 9.65631 34.3607 9.88666 34.2228 10.0242L32.3287 11.913C32.2124 12.029 32.0238 12.029 31.9074 11.913L30.0255 10.0363C29.8882 9.8994 29.9169 9.67022 30.0836 9.57107L30.303 9.44065C30.8555 9.11212 31.4848 8.93959 32.1327 8.93959Z" fill="black"/>
</g>
<defs>
<clipPath id="clip0_1_5409">
<rect width="40" height="14" fill="white"/>
</clipPath>
</defs>
</svg>
